<?xml version="1.0" encoding="UTF-8" standalone="no"?>
<svg
   xmlns:dc="http://purl.org/dc/elements/1.1/"
   xmlns:cc="http://creativecommons.org/ns#"
   xmlns:rdf="http://www.w3.org/1999/02/22-rdf-syntax-ns#"
   xmlns:svg="http://www.w3.org/2000/svg"
   xmlns="http://www.w3.org/2000/svg"
   xmlns:sodipodi="http://sodipodi.sourceforge.net/DTD/sodipodi-0.dtd"
   xmlns:inkscape="http://www.inkscape.org/namespaces/inkscape"
   sodipodi:docname="ab_logo.svg"
   inkscape:version="1.0beta2 (2b71d25, 2019-12-03)"
   inkscape:export-ydpi="130"
   inkscape:export-xdpi="130"
   inkscape:export-filename="/Users/anilbhattarai/projects/personal/static_sites/dranil/images/ab_logo.png"
   id="svg8"
   version="1.1"
   viewBox="0 0 211.66666 211.66667"
   height="800"
   width="800">
  <defs
     id="defs2">
    <rect
       id="rect868"
       height="29.708936"
       width="188.00534"
       y="183.69643"
       x="25.702381" />
    <rect
       id="rect862"
       height="24.190476"
       width="185.96429"
       y="177.64881"
       x="16.630952" />
  </defs>
  <sodipodi:namedview
     inkscape:window-maximized="0"
     inkscape:window-y="46"
     inkscape:window-x="262"
     inkscape:window-height="704"
     inkscape:window-width="1280"
     units="px"
     showgrid="false"
     inkscape:document-rotation="0"
     inkscape:current-layer="layer1"
     inkscape:document-units="mm"
     inkscape:cy="560"
     inkscape:cx="407.24739"
     inkscape:zoom="0.35"
     inkscape:pageshadow="2"
     inkscape:pageopacity="0.0"
     borderopacity="1.0"
     bordercolor="#666666"
     pagecolor="#ffffff"
     id="base" />
  <metadata
     id="metadata5">
    <rdf:RDF>
      <cc:Work
         rdf:about="">
        <dc:format>image/svg+xml</dc:format>
        <dc:type
           rdf:resource="http://purl.org/dc/dcmitype/StillImage" />
        <dc:title></dc:title>
      </cc:Work>
    </rdf:RDF>
  </metadata>
  <g
     id="layer1"
     inkscape:groupmode="layer"
     inkscape:label="Layer 1">
    <rect
       y="0.37797782"
       x="-0.22678578"
       height="213.17859"
       width="213.93451"
       id="rect833"
       style="fill:#12677d;fill-opacity:1;fill-rule:evenodd;stroke-width:0.264584;paint-order:stroke fill markers" />
    <path
       inkscape:connector-curvature="0"
       d="m 67.855175,41.297195 c -0.138084,1.508466 -0.409239,3.000287 -0.536964,4.509555 -0.280385,1.188011 -0.613323,2.332223 -1.002975,3.483719 -0.46637,1.074883 -0.286657,2.315728 -0.715124,3.381909 -0.349303,1.185487 -0.668559,2.37762 -0.916344,3.589695 -0.541208,1.310367 -1.080114,2.632398 -1.464125,3.999637 -0.794639,1.572895 -1.296215,3.257516 -1.986195,4.880428 -0.786731,2.453648 -1.470208,4.938154 -2.347135,7.36147 -0.70965,2.153351 -1.672868,4.20085 -2.468118,6.323102 -0.965457,2.303349 -2.011077,4.574286 -3.006402,6.866485 -0.861068,2.265712 -2.012617,4.397256 -2.974094,6.620354 -0.647097,1.899174 -1.411563,3.743985 -2.279957,5.551296 -1.746573,2.950535 -2.989466,6.151805 -4.528902,9.206485 -2.128877,4.85671 -4.521914,9.57161 -7.061771,14.22281 -1.327105,2.53719 -2.665598,5.06444 -4.027887,7.5816 -0.841883,1.37142 -1.531874,2.82716 -2.438435,4.15793 -0.669803,0.35603 -0.946232,1.06574 -1.370981,1.63767 -1.485061,1.99968 0.725432,-1.34015 -0.732991,0.91553 -0.764251,0.73627 -1.333351,1.6519 -2.049137,2.44619 -0.765717,0.80917 -1.068292,1.92232 -1.644213,2.86106 -0.360624,0.81616 -1.214419,1.2924 -1.495242,2.12486 -0.09987,0.3187 -0.157475,0.56795 -0.39243,0.80315 0,0 13.663953,-6.09044 13.663953,-6.09044 v 0 c 0.102426,-0.28441 0.18818,-0.53967 0.386641,-0.77258 0.630674,-0.56563 0.958337,-1.39458 1.373008,-2.117 0.482512,-0.95114 1.032515,-1.84043 1.781405,-2.60783 0.666387,-0.83839 1.312518,-1.69253 1.980946,-2.52635 0.719185,-0.85815 1.454327,-1.73672 2.056945,-2.67374 0.730903,-1.35989 1.423686,-2.74052 2.135145,-4.11057 1.292373,-2.43971 2.406578,-4.96214 3.639502,-7.43197 2.281404,-4.7214 4.34561,-9.55453 6.884546,-14.14625 1.658892,-3.188038 3.310951,-6.37611 5.092089,-9.497581 0.879303,-1.809057 1.541732,-3.691059 2.222317,-5.580486 0.994862,-2.208567 2.090431,-4.371088 2.96455,-6.632982 0.985613,-2.331368 2.071921,-4.614521 3.045632,-6.949895 0.813224,-2.098215 1.701745,-4.17081 2.352585,-6.327614 0.782201,-2.454269 1.478823,-4.943993 2.498995,-7.313543 0.712872,-1.680012 1.392563,-3.375248 2.066796,-5.068819 0.488143,-1.355619 1.050739,-2.691188 1.402778,-4.090985 0.333677,-1.210781 0.738098,-2.401258 1.032936,-3.623072 0.164849,-1.103622 0.312796,-2.212011 0.722889,-3.260201 0.411917,-1.229873 0.643292,-2.526583 0.845556,-3.804502 0.122248,-1.482989 0.251618,-2.971212 0.623993,-4.417343 0,0 -13.333785,6.518818 -13.333785,6.518818 z"
       id="path842"
       style="fill:#ffff00;fill-rule:evenodd;stroke-width:0.264583;paint-order:stroke fill markers" />
    <path
       inkscape:connector-curvature="0"
       d="m 48.273463,35.124354 c 3.657928,1.183937 7.018657,3.078396 10.239814,5.14467 1.728634,1.242719 3.530042,2.451468 5.013124,3.993253 0.719227,0.846979 1.29473,1.825969 1.838796,2.796595 0.47263,0.748573 0.748326,1.588302 1.138735,2.37634 0.803256,1.05841 1.160872,2.284624 1.369062,3.575796 0.451551,1.170546 0.706464,2.375318 0.831366,3.619024 0.280913,1.499785 0.691682,2.954218 1.150398,4.40727 0.373824,1.300281 0.651576,2.632755 1.090231,3.913539 0.386046,1.052211 0.633381,2.123562 1.0951,3.14384 0.706263,1.412857 0.87453,2.977928 1.265288,4.4865 0.373613,2.030489 1.050748,3.981368 1.567603,5.975728 0.643864,2.646006 1.388129,5.260618 2.030503,7.909851 1.475859,4.088749 2.605714,8.28669 3.990729,12.403539 1.302403,3.321851 2.176269,6.785861 3.28713,10.169381 0.345273,1.05165 0.739026,2.08676 1.108538,3.13015 0.365432,1.13918 0.730864,2.27836 1.096296,3.41754 2.107795,6.82525 4.394698,13.59433 6.420486,20.4465 1.209724,4.27932 2.682345,8.47447 4.040466,12.7063 0.552437,1.73662 1.249044,3.22545 2.795555,4.24705 1.179427,0.49657 2.385947,0.91732 3.558317,1.43351 0,0 12.30977,-8.2409 12.30977,-8.2409 v 0 c -1.16702,-0.43019 -2.26104,-1.07567 -3.48863,-1.30655 -1.43434,-0.48423 -1.92046,-1.89684 -2.53368,-3.17714 -1.82492,-3.95686 -3.65033,-7.91845 -4.95645,-12.08756 -3.27458,-10.09345 1.19632,3.83335 -2.0668,-6.83731 -1.39066,-4.54756 -3.252164,-8.94645 -4.407798,-13.5678 -1.607251,-5.68945 -3.089122,-11.422415 -4.96792,-17.028787 -1.249274,-4.147905 -2.534118,-8.297191 -3.561069,-12.504209 -0.583496,-2.68511 -1.250852,-5.344511 -1.898081,-8.015194 -0.49008,-2.004219 -0.963525,-4.011602 -1.440924,-6.018649 -0.345681,-1.640274 -0.618783,-3.305813 -1.190133,-4.88646 -0.471342,-0.935993 -0.698217,-1.978179 -1.130847,-2.932975 -0.448789,-1.297382 -0.613688,-2.67162 -1.049206,-3.970171 -0.550304,-1.296405 -0.843573,-2.664023 -1.036841,-4.05719 -0.146788,-1.298924 -0.420259,-2.54449 -0.860991,-3.776805 -0.353962,-1.345605 -0.735333,-2.696784 -1.470641,-3.892325 -0.361315,-0.873646 -0.726271,-1.733172 -1.209416,-2.546038 -0.683456,-1.018101 -1.348182,-2.052881 -2.112796,-3.010336 -1.621316,-1.655048 -3.8067,-2.646731 -5.692846,-3.957926 -0.615635,-0.395811 -2.62159,-1.695567 -3.244107,-2.054765 -2.212139,-1.276421 -4.67769,-2.070314 -6.764906,-3.569263 0,0 -12.153225,8.141977 -12.153225,8.141977 z"
       id="path844"
       style="fill:#ffff00;fill-rule:evenodd;stroke-width:0.264583;paint-order:stroke fill markers" />
    <path
       inkscape:connector-curvature="0"
       d="m 34.811392,113.62022 c 4.123703,-0.1705 8.27147,0.0558 12.382957,0.39379 3.206475,0.34543 6.440601,0.51854 9.628928,1.01753 1.117299,0.28812 2.226038,0.59709 3.367432,0.77556 1.249764,0.15611 2.508874,0.0501 3.755123,0.22488 1.648489,0.31887 3.308413,0.45284 4.98141,0.54259 1.506578,0.0705 3.013935,0.0971 4.521872,0.1104 1.280626,0.008 2.560781,-0.001 3.841518,0.002 0.964776,0.0842 1.865053,0.0301 2.797555,-0.21668 0.804053,-0.21769 1.552999,-0.54905 2.350596,-0.80564 5.481997,-1.3818 10.764756,-4.32084 14.868735,-8.23625 0,0 -13.84846,5.48694 -13.84846,5.48694 v 0 c -5.2125,2.72011 16.846102,-9.38238 11.539282,-6.65646 -0.12397,0.0637 -0.21343,0.18547 -0.340587,0.24249 -0.1322,0.0593 -0.28201,0.0666 -0.42301,0.0999 -0.438137,0.10155 -0.999234,0.12694 -1.398111,0.34925 -0.10049,0.056 -0.15295,0.1807 -0.256397,0.23103 -0.0354,0.0172 -0.685857,0.10387 -0.700857,0.10594 -0.870927,0.37176 -1.637341,0.81009 -2.611972,0.69622 -1.285629,0.006 -2.57071,7e-5 -3.856215,0.0108 -1.527802,0.012 -3.055556,0.033 -4.58335,0.005 -1.604079,-0.0407 -3.211592,-0.14048 -4.792377,-0.43052 -1.2412,-0.26608 -2.444898,-0.42835 -3.722256,-0.37312 -1.201626,-0.066 -2.372185,-0.28505 -3.53995,-0.57457 -3.363818,-0.49836 -6.824192,-0.21239 -10.194465,-0.73783 -3.965919,-0.32309 -7.942942,-0.50607 -11.904321,-0.88271 0,0 -11.86308,8.61903 -11.86308,8.61903 z"
       id="path846"
       style="fill:#ffff00;fill-rule:evenodd;stroke-width:0.264583;paint-order:stroke fill markers" />
    <path
       inkscape:connector-curvature="0"
       d="m 109.57598,42.163657 c 0.14239,1.74569 0.058,3.501261 0.0866,5.251458 0.0388,2.41014 0.0773,4.821516 0.11556,7.232478 -0.0434,2.554986 -0.0962,5.102612 0.003,7.656907 0.0802,2.955584 0.35814,5.901521 0.50234,8.85571 -0.10522,1.607246 0.32785,3.134704 0.59478,4.700246 0.27817,2.588421 0.51169,5.183254 0.70106,7.780377 0.34964,6.624071 0.23779,13.260385 -0.009,19.885607 -0.0311,3.46766 -0.2291,6.92871 -0.37209,10.39226 -0.038,1.93462 -0.0247,3.87184 -0.002,5.80707 0.0341,3.07111 0.2161,6.13637 0.2136,9.20881 0.003,2.96786 -0.12426,5.9335 -0.20924,8.8996 -0.0245,1.72787 -0.0747,3.46055 -0.0479,5.18972 0.0127,1.41396 -6e-5,2.82927 -0.0827,4.24113 -0.0484,1.02844 0.0236,2.05553 0.0707,3.08292 0.0328,1.15248 -0.0111,2.30657 -0.0601,3.45811 0,0 13.24172,-6.74699 13.24172,-6.74699 v 0 c -0.0503,-1.13106 -0.093,-2.2648 -0.0601,-3.39687 0.046,-1.05135 0.11838,-2.1027 0.0707,-3.15497 -0.0861,-1.38357 -0.0938,-2.77108 -0.0827,-4.1569 0.0262,-1.71289 -0.0227,-3.42943 -0.0479,-5.14091 -0.0854,-2.89501 -0.2137,-5.78953 -0.20925,-8.68638 -0.003,-3.14482 0.18004,-6.28287 0.21353,-9.42643 0.022,-1.93441 0.0357,-3.87082 -0.002,-5.80461 -0.14198,-3.33838 -0.33933,-6.67414 -0.36428,-10.016912 -0.25068,-6.621556 -0.33548,-13.252276 -0.0308,-19.873982 0.16368,-2.817146 0.57903,-5.675331 0.11088,-8.483759 -0.2843,-1.483449 -0.66629,-2.94904 -0.72949,-4.46737 -0.33319,-2.880529 -0.75399,-5.766866 -0.59331,-8.67606 0.0956,-2.555484 0.0505,-5.104083 0.003,-7.660114 0.0382,-2.450224 0.0766,-4.9008 0.11556,-7.350236 0.0286,-1.779709 -0.0539,-3.564149 0.0866,-5.339747 0,0 -13.22768,6.739837 -13.22768,6.739837 z"
       id="path848"
       style="fill:#ffff00;fill-rule:evenodd;stroke-width:0.264583;paint-order:stroke fill markers" />
    <path
       inkscape:connector-curvature="0"
       d="m 104.67951,46.394012 c 2.40879,-0.06033 4.80757,-0.256958 7.20462,-0.496809 1.67999,-0.08962 3.34038,-0.240003 4.99302,-0.553275 0.93465,-0.295921 1.89014,-0.392533 2.86367,-0.440997 1.33518,-0.183346 2.51318,0.129302 3.76643,0.548071 1.14557,0.335592 2.18115,0.931651 3.21824,1.506887 1.69613,0.827987 3.30803,1.810946 4.97921,2.684513 3.35128,1.976165 6.86022,3.649538 10.234,5.586044 3.5088,2.101064 6.98449,4.260139 10.45071,6.431521 1.98403,1.169046 3.94894,2.37776 5.65085,3.938971 1.94036,1.866437 3.51111,4.059251 5.12205,6.203381 1.76127,2.414397 3.30018,4.931159 4.2139,7.78565 0.65693,1.973816 0.31853,3.884663 -0.19228,5.834737 -0.49923,1.666913 -1.44566,3.170476 -2.35288,4.643872 -1.08929,1.778114 -2.51761,3.045362 -4.28359,4.101568 21.05194,-13.14759 13.21048,-6.964587 8.25786,-5.156539 -1.96872,0.718717 -1.97771,0.674355 -4.04308,1.241441 -3.04989,0.791575 -6.14879,1.351172 -9.18209,2.207382 -1.98258,0.586473 -3.97309,1.146326 -5.95175,1.745833 -2.81944,0.824537 -5.74954,1.198824 -8.66756,1.464874 -3.00304,0.241987 -6.01732,0.335247 -9.02948,0.301277 -1.19521,-0.0288 -2.38978,-0.0713 -3.58437,-0.11508 -0.76118,-0.0162 -0.38028,-0.0359 -1.14263,0.0606 0,0 -11.63047,9.259406 -11.63047,9.259406 v 0 c 0.42473,-0.45251 0.1907,-0.27809 0.68492,-0.54555 1.31788,-0.033 2.63568,-0.0723 3.95303,-0.12527 3.1057,-0.0975 6.21554,-0.12523 9.31465,-0.3733 2.84862,-0.24247 5.70841,-0.4326 8.51648,-0.97511 2.03046,-0.62053 4.06301,-1.21097 6.08425,-1.85824 3.12651,-0.98137 6.30581,-1.726467 9.4901,-2.503341 1.25543,-0.31481 2.54114,-0.502327 3.79258,-0.832637 5.99776,-1.583061 11.32367,-8.660627 16.69807,-9.110043 1.70968,-1.283186 3.00851,-2.895949 4.10508,-4.731869 0.89961,-1.59803 1.87741,-3.189504 2.13302,-5.041402 0.4205,-2.192004 0.61104,-4.42899 -0.26317,-6.542477 -1.18499,-2.860317 -2.87182,-5.463791 -4.65496,-7.986246 -1.57735,-2.266606 -3.03768,-4.659091 -4.96697,-6.647723 -1.8265,-1.640689 -3.83884,-3.025301 -6.09676,-4.000243 -3.62738,-2.039943 -7.19377,-4.181382 -10.82995,-6.207561 -3.28413,-1.897084 -6.49667,-3.897019 -9.6292,-6.035649 -1.62828,-0.886008 -3.26942,-1.785972 -4.78457,-2.847099 -1.15502,-0.533662 -2.18532,-1.337927 -3.43487,-1.640054 -1.32244,-0.415195 -2.52851,-1.191771 -3.95867,-1.026422 -1.02,0.0024 -2.05277,-0.06573 -3.05095,0.168322 -1.6759,0.524103 -3.36042,0.932773 -5.12914,0.938578 -2.2805,0.204687 -4.5614,0.662712 -6.85687,0.413901 0,0 -12.01048,8.72612 -12.01048,8.72612 z"
       id="path856"
       style="fill:#ffff00;fill-rule:evenodd;stroke-width:0.264583;paint-order:stroke fill markers" />
    <path
       inkscape:connector-curvature="0"
       d="m 119.66742,100.80383 c 2.09204,0.50845 4.19647,0.99779 6.33944,1.22381 2.87289,0.24439 5.76118,0.1247 8.6427,0.16617 2.43065,0.0451 4.85891,0.0833 7.28985,0.0373 3.44095,-0.22646 6.8663,0.0935 10.29351,0.35379 2.83125,0.30114 5.67601,0.29193 8.51592,0.39338 2.93376,0.1546 5.75439,1.00148 8.47124,2.06901 2.69036,0.87555 5.37247,1.72936 7.9459,2.91487 1.6862,0.83262 3.38281,1.78685 4.66123,3.18866 0.71093,1.07343 1.18526,2.31687 1.51997,3.55846 0.3525,1.53184 0.4535,3.06005 0.0227,4.57603 -0.52867,1.70947 -1.25579,3.35296 -1.89351,5.02527 -0.66655,2.10738 -1.76337,4.02144 -2.7396,5.99308 -1.21327,2.43572 -3.27978,4.27125 -5.04775,6.29384 -2.16226,2.60712 -4.62914,4.91275 -7.32192,6.95849 -4.13606,2.64025 -11.60421,7.47212 7.45994,-4.22552 0.75113,-0.46088 -1.57093,0.80156 -2.37884,1.15353 -2.01931,0.8797 -4.23061,1.58899 -6.2988,2.30388 -6.15402,1.94712 -12.42762,3.54322 -18.78081,4.68823 -3.83636,0.66867 -7.7282,0.73803 -11.61003,0.74712 -2.78705,0.14038 -5.52124,-0.29592 -8.21078,-0.98069 -0.943,-0.20754 -1.77828,-0.69441 -2.63096,-1.12462 0,0 -12.19878,8.01568 -12.19878,8.01568 v 0 c 0.94883,0.48476 1.83909,1.07202 2.84153,1.44522 2.85442,0.48696 5.71422,1.18731 8.62639,1.07244 4.03421,-0.0804 8.08535,-0.20671 12.08161,-0.79838 6.55354,-1.21864 12.93869,-3.20473 19.37224,-4.92276 2.1872,-0.63214 3.84915,-1.06418 5.95206,-1.83704 6.84972,-2.5174 13.07194,-6.59727 18.98679,-10.83169 2.64439,-2.18267 5.08334,-4.58177 7.29411,-7.20653 1.90902,-2.06329 3.91361,-4.05702 5.02142,-6.69611 1.05649,-2.04098 2.16546,-4.04535 2.90686,-6.23065 0.66628,-1.70731 1.34271,-3.42716 1.7546,-5.21578 0.27792,-1.77582 0.18415,-3.53881 -0.23759,-5.29101 -0.46058,-1.42732 -0.96795,-2.85111 -1.92303,-4.03627 -1.36495,-1.6804 -3.27978,-2.70581 -5.21937,-3.616967 -2.60543,-1.070664 -5.1912,-2.196428 -7.89315,-3.011595 -2.85616,-1.125904 -5.85952,-1.849368 -8.89067,-2.319265 -2.84292,-0.27888 -5.69662,-0.20437 -8.54758,-0.36841 -3.39607,-0.204927 -6.78639,-0.536867 -10.19075,-0.550437 -2.46858,-0.0435 -4.93421,0.0148 -7.40247,0.0508 -2.79329,0.0258 -5.58298,-0.0265 -8.37164,-0.194108 -2.00462,-0.173885 -4.04451,-0.380778 -5.93924,-1.098108 0,0 -12.27274,8.32692 -12.27274,8.32692 z"
       id="path858"
       style="fill:#ffff00;fill-rule:evenodd;stroke-width:0.264583;paint-order:stroke fill markers" />
    <text
       style="line-height:1.25;font-family:sans-serif;font-size:10.58333333000000032px;letter-spacing:0px;shape-inside:url(#rect862);white-space:pre;fill:#ffffff;"
       id="text860"
       xml:space="preserve" />
    <text
       transform="matrix(1.9865884,0,0,2.670974,-129.72336,-320.53712)"
       y="0"
       x="50.187988"
       style="font-size:10.58329999999999949px;line-height:1.25;font-family:sans-serif;text-align:center;letter-spacing:0px;white-space:pre;shape-inside:url(#rect868);fill:#ffffff"
       id="text866"
       xml:space="preserve"><tspan
         sodipodi:role="line"
         x="69.134682"
         y="193.35273"><tspan>Anil Bhattarai, PhD</tspan></tspan></text>
  </g>
</svg>
